<?xml version="1.0" encoding="UTF-8"?>
<svg width="18px" height="18px" viewBox="0 0 18 18" version="1.1" xmlns="http://www.w3.org/2000/svg" xmlns:xlink="http://www.w3.org/1999/xlink">
    <!-- Generator: Sketch 51.3 (57544) - http://www.bohemiancoding.com/sketch -->
    <title>round-close-24px</title>
    <desc>Created with Sketch.</desc>
    <defs></defs>
    <g id="Page-1" stroke="none" stroke-width="1" fill="none" fill-rule="evenodd">
        <g id="Läsinställningar-font-mobil" transform="translate(-321.000000, -300.000000)" fill="#FFFFFF" fill-rule="nonzero">
            <g id="round-close-24px" transform="translate(320.000000, 299.000000)">
                <g id="Rounded" transform="translate(0.666667, 0.666667)">
                    <path d="M17.7333333,0.946666667 C17.2133333,0.426666667 16.3733333,0.426666667 15.8533333,0.946666667 L9.33333333,7.45333333 L2.81333333,0.933333333 C2.29333333,0.413333333 1.45333333,0.413333333 0.933333333,0.933333333 C0.413333333,1.45333333 0.413333333,2.29333333 0.933333333,2.81333333 L7.45333333,9.33333333 L0.933333333,15.8533333 C0.413333333,16.3733333 0.413333333,17.2133333 0.933333333,17.7333333 C1.45333333,18.2533333 2.29333333,18.2533333 2.81333333,17.7333333 L9.33333333,11.2133333 L15.8533333,17.7333333 C16.3733333,18.2533333 17.2133333,18.2533333 17.7333333,17.7333333 C18.2533333,17.2133333 18.2533333,16.3733333 17.7333333,15.8533333 L11.2133333,9.33333333 L17.7333333,2.81333333 C18.24,2.30666667 18.24,1.45333333 17.7333333,0.946666667 Z" id="Shape"></path>
                </g>
            </g>
        </g>
    </g>
</svg>