<?xml version="1.0" encoding="UTF-8"?>
<svg width="48px" height="48px" viewBox="0 0 48 48" version="1.1" xmlns="http://www.w3.org/2000/svg" xmlns:xlink="http://www.w3.org/1999/xlink">
    <!-- Generator: Sketch 51.3 (57544) - http://www.bohemiancoding.com/sketch -->
    <title>Group</title>
    <desc>Created with Sketch.</desc>
    <defs></defs>
    <g id="Page-1" stroke="none" stroke-width="1" fill="none" fill-rule="evenodd">
        <g id="Artikel-mobil" transform="translate(-312.000000, -287.000000)">
            <g id="Group" transform="translate(312.000000, 287.000000)">
                <circle id="Oval" fill="#E1AB99" fill-rule="nonzero" cx="24" cy="24" r="24"></circle>
                <g id="round-settings-24px" transform="translate(8.000000, 8.000000)">
                    <g id="Bounding_Boxes">
                        <polygon id="Shape" points="0 0 32 0 32 32 0 32"></polygon>
                    </g>
                    <g id="Rounded" transform="translate(2.666667, 2.666667)" fill="#FFFFFF" fill-rule="nonzero">
                        <path d="M23.24,14.64 C23.2933333,14.2133333 23.3333333,13.7866667 23.3333333,13.3333333 C23.3333333,12.88 23.2933333,12.4533333 23.24,12.0266667 L26.0533333,9.82666667 C26.3066667,9.62666667 26.3733333,9.26666667 26.2133333,8.97333333 L23.5466667,4.36 C23.3866667,4.06666667 23.0266667,3.96 22.7333333,4.06666667 L19.4133333,5.4 C18.72,4.86666667 17.9733333,4.42666667 17.16,4.09333333 L16.6533333,0.56 C16.6133333,0.24 16.3333333,0 16,0 L10.6666667,0 C10.3333333,0 10.0533333,0.24 10.0133333,0.56 L9.50666667,4.09333333 C8.69333333,4.42666667 7.94666667,4.88 7.25333333,5.4 L3.93333333,4.06666667 C3.62666667,3.94666667 3.28,4.06666667 3.12,4.36 L0.453333333,8.97333333 C0.28,9.26666667 0.36,9.62666667 0.613333333,9.82666667 L3.42666667,12.0266667 C3.37333333,12.4533333 3.33333333,12.8933333 3.33333333,13.3333333 C3.33333333,13.7733333 3.37333333,14.2133333 3.42666667,14.64 L0.613333333,16.84 C0.36,17.04 0.293333333,17.4 0.453333333,17.6933333 L3.12,22.3066667 C3.28,22.6 3.64,22.7066667 3.93333333,22.6 L7.25333333,21.2666667 C7.94666667,21.8 8.69333333,22.24 9.50666667,22.5733333 L10.0133333,26.1066667 C10.0533333,26.4266667 10.3333333,26.6666667 10.6666667,26.6666667 L16,26.6666667 C16.3333333,26.6666667 16.6133333,26.4266667 16.6533333,26.1066667 L17.16,22.5733333 C17.9733333,22.24 18.72,21.7866667 19.4133333,21.2666667 L22.7333333,22.6 C23.04,22.72 23.3866667,22.6 23.5466667,22.3066667 L26.2133333,17.6933333 C26.3733333,17.4 26.3066667,17.04 26.0533333,16.84 L23.24,14.64 Z M13.3333333,18 C10.76,18 8.66666667,15.9066667 8.66666667,13.3333333 C8.66666667,10.76 10.76,8.66666667 13.3333333,8.66666667 C15.9066667,8.66666667 18,10.76 18,13.3333333 C18,15.9066667 15.9066667,18 13.3333333,18 Z" id="Shape"></path>
                    </g>
                </g>
            </g>
        </g>
    </g>
</svg>