<?xml version="1.0" encoding="UTF-8"?>
<svg width="32px" height="24px" viewBox="0 0 32 24" version="1.1" xmlns="http://www.w3.org/2000/svg" xmlns:xlink="http://www.w3.org/1999/xlink">
    <!-- Generator: Sketch 51.3 (57544) - http://www.bohemiancoding.com/sketch -->
    <title>Meny</title>
    <desc>Created with Sketch.</desc>
    <defs></defs>
    <g id="Page-1" stroke="none" stroke-width="1" fill="none" fill-rule="evenodd">
        <g id="Artikel-mobil" transform="translate(-320.000000, -20.000000)" fill="#FFFFFF" fill-rule="nonzero">
            <g id="Meny" transform="translate(320.000000, 20.000000)">
                <path d="M1.77777778,24 L30.2222222,24 C31.2,24 32,23.2125 32,22.25 C32,21.2875 31.2,20.5 30.2222222,20.5 L1.77777778,20.5 C0.8,20.5 0,21.2875 0,22.25 C0,23.2125 0.8,24 1.77777778,24 Z M1.77777778,13.75 L30.2222222,13.75 C31.2,13.75 32,12.9625 32,12 C32,11.0375 31.2,10.25 30.2222222,10.25 L1.77777778,10.25 C0.8,10.25 0,11.0375 0,12 C0,12.9625 0.8,13.75 1.77777778,13.75 Z M0,1.75 C0,2.7125 0.8,3.5 1.77777778,3.5 L30.2222222,3.5 C31.2,3.5 32,2.7125 32,1.75 C32,0.7875 31.2,0 30.2222222,0 L1.77777778,0 C0.8,0 0,0.7875 0,1.75 Z" id="Shape"></path>
            </g>
        </g>
    </g>
</svg>